<svg style="margin-bottom: 30px;" xmlns="http://www.w3.org/2000/svg" xmlns:xlink="http://www.w3.org/1999/xlink" width="263" height="30.386" viewBox="0 0 263 30.386">
                <defs>
                    <clipPath id="clip-path">
                        <path id="Path_4" data-name="Path 4" d="M6077.34,10715.1l5.793-10.035a9.581,9.581,0,0,1,2.872-1.9,13.345,13.345,0,0,1,3.206-.936,10.38,10.38,0,0,1,3.087-.036,7.157,7.157,0,0,1,2.581.845,5.426,5.426,0,0,1,2.9,4.061q.36,2.593-1.808,6.348l-.952,1.65Z" transform="translate(-6077.34 -10702.094)" clip-rule="evenodd"></path>
                    </clipPath>
                    <clipPath id="clip-path-2">
                        <path id="Path_7" data-name="Path 7" d="M6976.747,9155.66a22.07,22.07,0,0,1,15.691,30.385h-4.758a28.169,28.169,0,0,0,1.663-3.813,13.388,13.388,0,0,0,.8-4.874,9.224,9.224,0,0,0-1.4-4.564,12.046,12.046,0,0,0-4.414-3.963,15.5,15.5,0,0,0-7.594-2.162,14.136,14.136,0,0,0-7.5,2.011Z" transform="translate(-6969.23 -9155.66)" clip-rule="evenodd"></path>
                    </clipPath>
                </defs>
                <g id="Katman_x0020_1" transform="translate(-3151.54 -9155.66)">
                    <path id="Path_1" data-name="Path 1" d="M10005.668,9494.473h-2.25v-9.632a7.766,7.766,0,0,0-1.01-4.4,3.375,3.375,0,0,0-2.963-1.456,5.043,5.043,0,0,0-1.9.381,7.046,7.046,0,0,0-1.771,1.042,7.151,7.151,0,0,0-1.44,1.557,6.6,6.6,0,0,0-.91,1.952v10.559h-2.251v-24.162h2.251v10.823a7.813,7.813,0,0,1,2.847-3.078,7.353,7.353,0,0,1,3.938-1.125,5.3,5.3,0,0,1,2.516.546,4.649,4.649,0,0,1,1.688,1.522,6.67,6.67,0,0,1,.961,2.35,14.4,14.4,0,0,1,.3,3.028Zm4.8,0v-17.244h2.251v17.244Zm5.759-1.522,11.65-14.034h-11.385v-1.687h13.835v1.522l-11.618,14.034h11.585v1.688h-14.067Zm17.84-22.64h2.252v20.257a2.066,2.066,0,0,0,.529,1.5,1.979,1.979,0,0,0,1.489.547,4.525,4.525,0,0,0,.86-.1,5.868,5.868,0,0,0,.926-.265l.4,1.819a7.416,7.416,0,0,1-1.539.431,8.969,8.969,0,0,1-1.572.165,3.344,3.344,0,0,1-2.449-.877,3.3,3.3,0,0,1-.895-2.466Zm8.9,24.162v-17.244h2.25v17.244Zm17.079-13.5a8.731,8.731,0,0,0-3.608.777,4.554,4.554,0,0,0-2.283,2.234v10.492h-4.436v-17.344h4.071v3.707a7.878,7.878,0,0,1,1.093-1.605,8.382,8.382,0,0,1,1.356-1.241,6.256,6.256,0,0,1,1.473-.811,4.071,4.071,0,0,1,1.439-.282h.547a1.749,1.749,0,0,1,.348.034Zm6.983,13.835a6.587,6.587,0,0,1-2.35-.414,5.642,5.642,0,0,1-1.887-1.158,5.4,5.4,0,0,1-1.242-1.738,5.273,5.273,0,0,1-.445-2.185,4.822,4.822,0,0,1,.545-2.267,5.192,5.192,0,0,1,1.522-1.771,7.542,7.542,0,0,1,2.334-1.142,10.162,10.162,0,0,1,2.979-.414,12.78,12.78,0,0,1,2.267.2,9.238,9.238,0,0,1,1.971.563v-.993a3.478,3.478,0,0,0-.977-2.647,4.059,4.059,0,0,0-2.9-.927,7.678,7.678,0,0,0-2.715.5,12.678,12.678,0,0,0-2.713,1.457l-1.357-2.813a12.8,12.8,0,0,1,7.216-2.218,8.454,8.454,0,0,1,5.809,1.837,6.733,6.733,0,0,1,2.069,5.313v5.395a1.561,1.561,0,0,0,.247.993,1.086,1.086,0,0,0,.812.331v3.773a9.884,9.884,0,0,1-1.953.231,2.959,2.959,0,0,1-1.937-.562,2.418,2.418,0,0,1-.844-1.489l-.1-.96a7.7,7.7,0,0,1-2.814,2.317A8.078,8.078,0,0,1,10067.033,9494.8Zm1.258-3.243a5.766,5.766,0,0,0,2.135-.4,3.863,3.863,0,0,0,1.572-1.059,1.6,1.6,0,0,0,.729-1.258v-1.986a10.873,10.873,0,0,0-1.721-.479,9.314,9.314,0,0,0-1.789-.182,4.738,4.738,0,0,0-2.812.777,2.335,2.335,0,0,0-1.093,1.969,2.374,2.374,0,0,0,.861,1.871A3.126,3.126,0,0,0,10068.291,9491.561Zm29.127,2.912h-4.436v-9.731a5.065,5.065,0,0,0-.729-3.045,2.391,2.391,0,0,0-2.02-.959,3.774,3.774,0,0,0-1.356.265,5.014,5.014,0,0,0-1.308.744,6.031,6.031,0,0,0-1.107,1.142,4.5,4.5,0,0,0-.729,1.457v10.128h-4.436v-17.344h4.006v3.21a6.557,6.557,0,0,1,2.779-2.581,8.915,8.915,0,0,1,4.1-.927,5.232,5.232,0,0,1,2.647.6,4.309,4.309,0,0,1,1.589,1.556,6.518,6.518,0,0,1,.778,2.185,14.4,14.4,0,0,1,.215,2.482Zm11.055.331a7.88,7.88,0,0,1-3.31-.7,7.8,7.8,0,0,1-2.616-1.92,9,9,0,0,1-1.7-2.862,9.992,9.992,0,0,1-.612-3.525,10.345,10.345,0,0,1,.579-3.509,9.2,9.2,0,0,1,1.605-2.847,7.41,7.41,0,0,1,2.449-1.92,7,7,0,0,1,3.111-.694,6.576,6.576,0,0,1,3.459.927,6.707,6.707,0,0,1,2.4,2.416v-9.863h4.435v19.064a1.65,1.65,0,0,0,.231.993,1.029,1.029,0,0,0,.795.331v3.773a10.067,10.067,0,0,1-1.886.231,3.073,3.073,0,0,1-1.953-.6,2.188,2.188,0,0,1-.861-1.556l-.1-1.092a6.3,6.3,0,0,1-2.6,2.5A7.4,7.4,0,0,1,10108.473,9494.8Zm1.158-3.773a4.187,4.187,0,0,0,1.291-.215,4.554,4.554,0,0,0,1.225-.612,5.378,5.378,0,0,0,1.01-.927,3.877,3.877,0,0,0,.679-1.158v-4.138a4.844,4.844,0,0,0-.745-1.341,5.489,5.489,0,0,0-1.092-1.059,5.716,5.716,0,0,0-1.291-.712,3.666,3.666,0,0,0-1.341-.266,4,4,0,0,0-1.837.431,4.362,4.362,0,0,0-1.439,1.175,5.66,5.66,0,0,0-.927,1.705,6.026,6.026,0,0,0-.331,1.986,5.482,5.482,0,0,0,.363,2.019,5.262,5.262,0,0,0,.993,1.622,4.523,4.523,0,0,0,1.507,1.092A4.621,4.621,0,0,0,10109.631,9491.03Zm21.051,3.773a9.619,9.619,0,0,1-3.773-.712,8.51,8.51,0,0,1-4.717-4.783,9.141,9.141,0,0,1-.645-3.408,9.651,9.651,0,0,1,.629-3.492,8.521,8.521,0,0,1,1.82-2.88,8.7,8.7,0,0,1,2.9-1.969,9.633,9.633,0,0,1,3.822-.729,9.4,9.4,0,0,1,3.789.729,8.694,8.694,0,0,1,2.848,1.953,8.289,8.289,0,0,1,1.787,2.846,9.486,9.486,0,0,1,.613,3.376q0,.431-.018.827a3.435,3.435,0,0,1-.082.662h-13.405a5.108,5.108,0,0,0,.5,1.82,4.455,4.455,0,0,0,2.447,2.218,4.674,4.674,0,0,0,1.656.3,5.105,5.105,0,0,0,2.5-.646,3.419,3.419,0,0,0,1.605-1.7l3.807,1.059a7.741,7.741,0,0,1-3.062,3.261A9.488,9.488,0,0,1,10130.682,9494.8Zm4.5-10.459a4.608,4.608,0,0,0-1.439-3.128,4.519,4.519,0,0,0-6.141.017,4.553,4.553,0,0,0-.977,1.357,4.774,4.774,0,0,0-.446,1.754Zm11.484,10.128-6.387-17.344h4.566l4.4,13.736,4.436-13.736h4.17l-6.388,17.344Zm18.8.331a4.926,4.926,0,0,1-4.071-1.722,7.973,7.973,0,0,1-1.391-5.1v-10.856h4.435v9.9q0,4,2.881,4a4.557,4.557,0,0,0,2.5-.777,5.6,5.6,0,0,0,1.969-2.367v-10.757h4.437v12.246a1.555,1.555,0,0,0,.248.993,1.08,1.08,0,0,0,.811.331v3.773a9.529,9.529,0,0,1-1.109.166q-.447.032-.811.032a3.194,3.194,0,0,1-1.937-.546,2.144,2.144,0,0,1-.876-1.506l-.1-1.391a7.383,7.383,0,0,1-2.98,2.682A8.956,8.956,0,0,1,10165.469,9494.8Z" transform="translate(-6762.745 -311.113)" class="logo__text" fill="white"></path>
                    <g id="_1857791478112" transform="translate(3175.381 9155.66)">
                        <path id="Path_2" data-name="Path 2" d="M5272.919,9229.049a22.08,22.08,0,0,1,14.936-25.869Z" transform="translate(-5272.39 -9202.646)" fill="#f60" fill-rule="evenodd"></path>
                        <path id="Path_3" data-name="Path 3" d="M6077.34,10715.1l5.793-10.035a9.581,9.581,0,0,1,2.872-1.9,13.345,13.345,0,0,1,3.206-.936,10.38,10.38,0,0,1,3.087-.036,7.157,7.157,0,0,1,2.581.845,5.426,5.426,0,0,1,2.9,4.061q.36,2.593-1.808,6.348l-.952,1.65Z" transform="translate(-6068.291 -10684.71)" fill="#cc5612" fill-rule="evenodd"></path>
                        <g id="Group_2" data-name="Group 2" transform="translate(9.049 17.384)" clip-path="url(#clip-path)">
                            <g id="Group_1" data-name="Group 1" transform="translate(2.303)">
                                <path id="_1" d="M6282.2,10715.1l5.793-10.035a9.573,9.573,0,0,1,2.872-1.9,13.345,13.345,0,0,1,3.206-.936,10.38,10.38,0,0,1,3.087-.036,7.157,7.157,0,0,1,2.581.845,5.426,5.426,0,0,1,2.9,4.061q.36,2.593-1.808,6.348l-.952,1.65Z" transform="translate(-6282.2 -10702.094)" fill="#f60" fill-rule="evenodd"></path>
                            </g>
                        </g>
                        <path id="Path_5" data-name="Path 5" d="M6077.34,10715.1l5.793-10.035a9.581,9.581,0,0,1,2.872-1.9,13.345,13.345,0,0,1,3.206-.936,10.38,10.38,0,0,1,3.087-.036,7.157,7.157,0,0,1,2.581.845,5.426,5.426,0,0,1,2.9,4.061q.36,2.593-1.808,6.348l-.952,1.65Z" transform="translate(-6068.291 -10684.71)" fill="none" fill-rule="evenodd"></path>
                        <path id="Path_6" data-name="Path 6" d="M6976.747,9155.66a22.07,22.07,0,0,1,15.691,30.385h-4.758a28.169,28.169,0,0,0,1.663-3.813,13.388,13.388,0,0,0,.8-4.874,9.224,9.224,0,0,0-1.4-4.564,12.046,12.046,0,0,0-4.414-3.963,15.5,15.5,0,0,0-7.594-2.162,14.136,14.136,0,0,0-7.5,2.011Z" transform="translate(-6950.155 -9155.66)" fill="#cc5612" fill-rule="evenodd"></path>
                        <g id="Group_4" data-name="Group 4" transform="translate(19.075)" clip-path="url(#clip-path-2)">
                            <g id="Group_3" data-name="Group 3" transform="translate(2.303)">
                                <path id="_1_0" d="M7181.607,9155.66a22.069,22.069,0,0,1,15.691,30.385h-4.758a28.047,28.047,0,0,0,1.663-3.813,13.389,13.389,0,0,0,.8-4.874,9.225,9.225,0,0,0-1.4-4.564,12.042,12.042,0,0,0-4.414-3.963,15.492,15.492,0,0,0-7.594-2.162,14.135,14.135,0,0,0-7.5,2.011Z" transform="translate(-7174.091 -9155.66)" fill="#f60" fill-rule="evenodd"></path>
                            </g>
                        </g>
                        <path id="Path_8" data-name="Path 8" d="M6976.747,9155.66a22.07,22.07,0,0,1,15.691,30.385h-4.758a28.169,28.169,0,0,0,1.663-3.813,13.388,13.388,0,0,0,.8-4.874,9.224,9.224,0,0,0-1.4-4.564,12.046,12.046,0,0,0-4.414-3.963,15.5,15.5,0,0,0-7.594-2.162,14.136,14.136,0,0,0-7.5,2.011Z" transform="translate(-6950.155 -9155.66)" fill="none" fill-rule="evenodd"></path>
                    </g>
                    <rect id="Rectangle_3" data-name="Rectangle 3" width="11.817" height="3.972" rx="1.986" transform="translate(3160.244 9182.073)" fill="#fab88c"></rect>
                    <rect id="Rectangle_4" data-name="Rectangle 4" width="18.204" height="3.972" rx="1.986" transform="translate(3151.54 9173.27)" fill="#fab88c"></rect>
                    <rect id="Rectangle_5" data-name="Rectangle 5" width="12.148" height="3.972" rx="1.986" transform="translate(3160.575 9164.464)" fill="#fab88c"></rect>
                    <rect id="Rectangle_6" data-name="Rectangle 6" width="6.853" height="3.972" rx="1.986" transform="translate(3170.574 9155.66)" fill="#fab88c"></rect>
                    <rect id="Rectangle_7" data-name="Rectangle 7" width="4.763" height="3.972" rx="1.986" transform="translate(3152.734 9164.464)" fill="#fab88c"></rect>
                </g>
            </svg>