<svg xmlns:xlink="http://www.w3.org/1999/xlink" xmlns="http://www.w3.org/2000/svg" viewBox="-492 117 133 38" width="680"  height="194" ><g><path fill="#333333" d="M-359,151.3c0,2.1-1.7,3.8-3.8,3.8h-125.5c-2.1,0-3.8-1.7-3.8-3.8v-30.5c0-2.1,1.7-3.8,3.8-3.8h125.5 c2.1,0,3.8,1.7,3.8,3.8L-359,151.3L-359,151.3z"></path></g><g id="ios"><g><g><path fill="#FFFFFF" d="M-462.9,135.8c0-3.2,2.6-4.8,2.8-4.9c-1.5-2.2-3.9-2.5-4.7-2.5c-2-0.2-3.9,1.2-4.9,1.2c-1,0-2.6-1.2-4.2-1.1 c-2.1,0-4.1,1.3-5.2,3.2c-2.3,3.9-0.6,9.7,1.6,12.9c1.1,1.6,2.4,3.3,4,3.2c1.6-0.1,2.2-1,4.2-1c1.9,0,2.5,1,4.2,1 c1.7,0,2.8-1.6,3.9-3.1c1.3-1.8,1.8-3.5,1.8-3.6C-459.5,140.9-462.8,139.6-462.9,135.8z"></path><path fill="#FFFFFF" d="M-466.1,126.3c0.9-1.1,1.5-2.6,1.3-4.1c-1.3,0.1-2.8,0.9-3.8,1.9c-0.8,0.9-1.5,2.5-1.3,3.9 C-468.4,128.2-467,127.4-466.1,126.3z"></path></g></g><g><path fill="#FFFFFF" d="M-442.4,134.9h-1.6l-0.9-2.7h-3l-0.8,2.7h-1.5l3-9.2h1.8L-442.4,134.9z M-445.1,131l-0.8-2.4 c-0.1-0.2-0.2-0.8-0.5-1.7h0c-0.1,0.4-0.2,1-0.4,1.7l-0.8,2.4H-445.1z"></path><path fill="#FFFFFF" d="M-434.8,131.5c0,1.1-0.3,2-0.9,2.7c-0.5,0.6-1.2,0.9-2,0.9c-0.9,0-1.5-0.3-1.9-0.9h0v3.5h-1.5v-7.2 c0-0.7,0-1.4-0.1-2.2h1.3l0.1,1.1h0c0.5-0.8,1.2-1.2,2.2-1.2c0.8,0,1.4,0.3,2,0.9S-434.8,130.5-434.8,131.5z M-436.4,131.5 c0-0.6-0.1-1.2-0.4-1.6c-0.3-0.4-0.7-0.7-1.3-0.7c-0.4,0-0.7,0.1-1,0.4c-0.3,0.2-0.5,0.6-0.6,1c0,0.2-0.1,0.3-0.1,0.5v1.1 c0,0.5,0.1,0.9,0.4,1.2s0.7,0.5,1.2,0.5c0.6,0,1-0.2,1.3-0.6S-436.4,132.2-436.4,131.5z"></path><path fill="#FFFFFF" d="M-427.1,131.5c0,1.1-0.3,2-0.9,2.7c-0.5,0.6-1.2,0.9-2,0.9c-0.9,0-1.5-0.3-1.9-0.9h0v3.5h-1.5v-7.2 c0-0.7,0-1.4-0.1-2.2h1.3l0.1,1.1h0c0.5-0.8,1.2-1.2,2.2-1.2c0.8,0,1.4,0.3,2,0.9S-427.1,130.5-427.1,131.5z M-428.6,131.5 c0-0.6-0.1-1.2-0.4-1.6c-0.3-0.4-0.7-0.7-1.3-0.7c-0.4,0-0.7,0.1-1,0.4c-0.3,0.2-0.5,0.6-0.6,1c0,0.2-0.1,0.3-0.1,0.5v1.1 c0,0.5,0.1,0.9,0.4,1.2c0.3,0.3,0.7,0.5,1.2,0.5c0.6,0,1-0.2,1.3-0.6C-428.8,132.8-428.6,132.2-428.6,131.5z"></path><path fill="#FFFFFF" d="M-417.1,132.3c0,0.8-0.3,1.4-0.8,1.9c-0.6,0.5-1.4,0.8-2.5,0.8c-1,0-1.8-0.2-2.4-0.6l0.3-1.2 c0.6,0.4,1.4,0.6,2.1,0.6c0.6,0,1-0.1,1.3-0.4c0.3-0.3,0.5-0.6,0.5-1c0-0.4-0.1-0.7-0.4-0.9c-0.3-0.3-0.7-0.5-1.3-0.7 c-1.6-0.6-2.4-1.5-2.4-2.6c0-0.8,0.3-1.4,0.8-1.9c0.6-0.5,1.3-0.7,2.3-0.7c0.8,0,1.5,0.1,2.1,0.4l-0.4,1.2 c-0.5-0.3-1.1-0.4-1.8-0.4c-0.5,0-0.9,0.1-1.2,0.4c-0.2,0.2-0.4,0.5-0.4,0.8c0,0.4,0.1,0.7,0.4,0.9c0.2,0.2,0.7,0.5,1.3,0.7 c0.8,0.3,1.4,0.7,1.8,1.1C-417.3,131.1-417.1,131.7-417.1,132.3z"></path><path fill="#FFFFFF" d="M-412.3,129.3h-1.6v3.2c0,0.8,0.3,1.2,0.9,1.2c0.3,0,0.5,0,0.7-0.1l0,1.1c-0.3,0.1-0.7,0.2-1.2,0.2 c-0.6,0-1-0.2-1.4-0.5c-0.3-0.4-0.5-1-0.5-1.8v-3.4h-1v-1.1h1V127l1.5-0.4v1.7h1.6V129.3z"></path><path fill="#FFFFFF" d="M-405,131.5c0,1-0.3,1.9-0.9,2.5c-0.6,0.7-1.4,1-2.4,1c-1,0-1.8-0.3-2.3-1c-0.6-0.6-0.9-1.5-0.9-2.5 c0-1,0.3-1.9,0.9-2.5c0.6-0.7,1.4-1,2.4-1c1,0,1.8,0.3,2.4,1C-405.3,129.7-405,130.5-405,131.5z M-406.6,131.6 c0-0.6-0.1-1.1-0.4-1.6c-0.3-0.5-0.8-0.8-1.3-0.8c-0.6,0-1,0.3-1.4,0.8c-0.3,0.4-0.4,1-0.4,1.6c0,0.6,0.1,1.1,0.4,1.6 c0.3,0.5,0.8,0.8,1.3,0.8c0.6,0,1-0.3,1.3-0.8C-406.7,132.7-406.6,132.2-406.6,131.6z"></path><path fill="#FFFFFF" d="M-400.1,129.5c-0.1,0-0.3,0-0.5,0c-0.5,0-0.9,0.2-1.2,0.6c-0.2,0.3-0.4,0.8-0.4,1.3v3.5h-1.5l0-4.6 c0-0.8,0-1.5-0.1-2.1h1.3l0.1,1.3h0c0.2-0.4,0.4-0.8,0.7-1.1c0.3-0.2,0.7-0.4,1.1-0.4c0.1,0,0.3,0,0.4,0V129.5z"></path><path fill="#FFFFFF" d="M-393.6,131.2c0,0.3,0,0.5-0.1,0.7h-4.4c0,0.7,0.2,1.2,0.6,1.5c0.4,0.3,0.9,0.5,1.5,0.5 c0.7,0,1.3-0.1,1.8-0.3l0.2,1c-0.6,0.3-1.4,0.4-2.2,0.4c-1,0-1.8-0.3-2.4-0.9c-0.6-0.6-0.9-1.4-0.9-2.4c0-1,0.3-1.8,0.8-2.5 c0.6-0.7,1.4-1.1,2.3-1.1c1,0,1.7,0.4,2.2,1.1C-393.8,129.7-393.6,130.4-393.6,131.2z M-395,130.9c0-0.4-0.1-0.8-0.3-1.1 c-0.3-0.4-0.6-0.6-1.2-0.6c-0.5,0-0.9,0.2-1.2,0.6c-0.2,0.3-0.4,0.7-0.4,1.2H-395z"></path><path fill="#FFFFFF" d="M-390.7,125.4c-0.4,1.4-0.9,2.5-1.4,3.4l-0.9,0.1c0.4-1.1,0.7-2.2,0.9-3.4L-390.7,125.4z"></path><path fill="#FFFFFF" d="M-384.7,134.9h-1.3l-0.1-1.1h0c-0.4,0.8-1.1,1.2-2.1,1.2c-0.8,0-1.5-0.3-2-0.9c-0.5-0.6-0.8-1.4-0.8-2.5 c0-1.1,0.3-1.9,0.9-2.6c0.6-0.6,1.2-0.9,2.1-0.9c0.9,0,1.5,0.3,1.9,0.9h0v-3.8h1.5v7.9C-384.7,133.7-384.7,134.3-384.7,134.9z M-386.2,132.1V131c0-0.2,0-0.3,0-0.5c-0.1-0.4-0.3-0.7-0.5-0.9c-0.3-0.2-0.6-0.4-1-0.4c-0.5,0-1,0.2-1.3,0.7 c-0.3,0.4-0.5,1-0.5,1.7c0,0.7,0.2,1.2,0.5,1.6c0.3,0.4,0.8,0.7,1.3,0.7c0.5,0,0.9-0.2,1.2-0.5 C-386.3,133-386.2,132.6-386.2,132.1z"></path><path fill="#FFFFFF" d="M-377.9,134.9h-1.3l-0.1-0.8h0c-0.5,0.6-1.1,0.9-1.9,0.9c-0.6,0-1.1-0.2-1.5-0.6c-0.3-0.4-0.5-0.8-0.5-1.4 c0-0.8,0.3-1.4,1-1.9s1.6-0.6,2.9-0.6v-0.1c0-0.9-0.5-1.3-1.4-1.3c-0.7,0-1.2,0.2-1.7,0.5l-0.3-1c0.6-0.4,1.4-0.6,2.3-0.6 c1.7,0,2.6,0.9,2.6,2.8v2.5C-378,134-377.9,134.5-377.9,134.9z M-379.4,132.6v-1c-1.6,0-2.5,0.4-2.5,1.3c0,0.3,0.1,0.6,0.3,0.8 c0.2,0.2,0.4,0.3,0.7,0.3c0.3,0,0.6-0.1,0.9-0.3c0.3-0.2,0.4-0.5,0.5-0.8C-379.4,132.8-379.4,132.7-379.4,132.6z"></path><path fill="#FFFFFF" d="M-370.4,134.9h-1.5v-3.8c0-1.2-0.4-1.8-1.3-1.8c-0.4,0-0.8,0.2-1.1,0.5s-0.4,0.7-0.4,1.1v3.9h-1.5v-4.8 c0-0.6,0-1.2-0.1-1.9h1.3l0.1,1h0c0.2-0.3,0.4-0.6,0.8-0.8c0.4-0.2,0.9-0.4,1.3-0.4c0.6,0,1.1,0.2,1.5,0.6 c0.5,0.5,0.8,1.2,0.8,2.2L-370.4,134.9L-370.4,134.9z"></path></g><g><g><path fill="#FFFFFF" d="M-447.9,139.3c0,0.2-0.1,0.3-0.1,0.4c-0.1,0.1-0.2,0.2-0.4,0.2c-0.1,0-0.3-0.1-0.4-0.2 c-0.1-0.1-0.2-0.2-0.2-0.4c0-0.1,0.1-0.3,0.2-0.4c0.1-0.1,0.2-0.2,0.4-0.2c0.2,0,0.3,0.1,0.4,0.2 C-447.9,139-447.9,139.1-447.9,139.3z M-447.9,146.8h-1v-6.5h1L-447.9,146.8L-447.9,146.8z"></path><path fill="#FFFFFF" d="M-441.9,146.8h-1v-2.7c0-0.8-0.3-1.2-1-1.2c-0.3,0-0.6,0.1-0.8,0.3c-0.2,0.2-0.3,0.5-0.3,0.8v2.8h-1v-3.4 c0-0.4,0-0.9,0-1.3h0.9l0,0.7h0c0.1-0.2,0.3-0.4,0.5-0.6c0.3-0.2,0.6-0.3,0.9-0.3c0.4,0,0.8,0.1,1.1,0.4c0.4,0.3,0.5,0.9,0.5,1.6 V146.8z"></path><path fill="#FFFFFF" d="M-435.8,146.8h-0.9l0-0.8h0c-0.3,0.6-0.8,0.9-1.5,0.9c-0.6,0-1-0.2-1.4-0.7s-0.6-1-0.6-1.7 c0-0.8,0.2-1.4,0.6-1.9c0.4-0.4,0.9-0.7,1.5-0.7c0.6,0,1.1,0.2,1.3,0.6h0v-2.7h1v5.6C-435.9,145.9-435.9,146.4-435.8,146.8z M-436.9,144.8V144c0-0.1,0-0.2,0-0.3c-0.1-0.3-0.2-0.5-0.4-0.6c-0.2-0.2-0.4-0.3-0.7-0.3c-0.4,0-0.7,0.2-0.9,0.5 c-0.2,0.3-0.3,0.7-0.3,1.2c0,0.5,0.1,0.8,0.3,1.1c0.2,0.3,0.5,0.5,0.9,0.5c0.3,0,0.6-0.1,0.8-0.4 C-437,145.4-436.9,145.1-436.9,144.8z"></path><path fill="#FFFFFF" d="M-432.9,140.6c0,0.2-0.1,0.3-0.2,0.5c-0.1,0.1-0.3,0.2-0.5,0.2c-0.2,0-0.3-0.1-0.4-0.2 c-0.1-0.1-0.2-0.3-0.2-0.5c0-0.2,0.1-0.3,0.2-0.4c0.1-0.1,0.3-0.2,0.5-0.2c0.2,0,0.3,0.1,0.5,0.2 C-432.9,140.3-432.9,140.5-432.9,140.6z M-433,146.8h-1V142h1V146.8z"></path><path fill="#FFFFFF" d="M-428.6,143c-0.1,0-0.2,0-0.3,0c-0.4,0-0.7,0.1-0.9,0.4c-0.2,0.2-0.3,0.6-0.3,0.9v2.5h-1l0-3.2 c0-0.5,0-1,0-1.5h0.9l0,0.9h0c0.1-0.3,0.3-0.6,0.5-0.7c0.2-0.2,0.5-0.3,0.8-0.3c0.1,0,0.2,0,0.3,0L-428.6,143L-428.6,143z"></path><path fill="#FFFFFF" d="M-426.1,140.6c0,0.2-0.1,0.3-0.2,0.5c-0.1,0.1-0.3,0.2-0.5,0.2c-0.2,0-0.3-0.1-0.4-0.2 c-0.1-0.1-0.2-0.3-0.2-0.5c0-0.2,0.1-0.3,0.2-0.4c0.1-0.1,0.3-0.2,0.5-0.2c0.2,0,0.3,0.1,0.5,0.2 C-426.2,140.3-426.1,140.5-426.1,140.6z M-426.2,146.8h-1V142h1V146.8z"></path><path fill="#FFFFFF" d="M-420.3,146.8h-1v-2.7c0-0.8-0.3-1.2-0.9-1.2c-0.3,0-0.6,0.1-0.8,0.3c-0.2,0.2-0.3,0.5-0.3,0.8v2.8h-1v-3.4 c0-0.4,0-0.9,0-1.3h0.9l0,0.7h0c0.1-0.2,0.3-0.4,0.5-0.6c0.3-0.2,0.6-0.3,0.9-0.3c0.4,0,0.8,0.1,1.1,0.4c0.4,0.3,0.5,0.9,0.5,1.6 C-420.3,143.9-420.3,146.8-420.3,146.8z"></path></g></g></g></svg>