<svg xmlns="http://www.w3.org/2000/svg" xmlns:xlink="http://www.w3.org/1999/xlink" style="margin-bottom: 30px;" width="100" height="30.386" viewBox="0 0 70 30.386">
                <defs>
                    <clipPath id="clip-path">
                        <path id="Path_4" data-name="Path 4" d="M6077.34,10715.1l5.793-10.035a9.581,9.581,0,0,1,2.872-1.9,13.345,13.345,0,0,1,3.206-.936,10.38,10.38,0,0,1,3.087-.036,7.157,7.157,0,0,1,2.581.845,5.426,5.426,0,0,1,2.9,4.061q.36,2.593-1.808,6.348l-.952,1.65Z" transform="translate(-6077.34 -10702.094)" clip-rule="evenodd"/>
                    </clipPath>
                    <clipPath id="clip-path-2">
                        <path id="Path_7" data-name="Path 7" d="M6976.747,9155.66a22.07,22.07,0,0,1,15.691,30.385h-4.758a28.169,28.169,0,0,0,1.663-3.813,13.388,13.388,0,0,0,.8-4.874,9.224,9.224,0,0,0-1.4-4.564,12.046,12.046,0,0,0-4.414-3.963,15.5,15.5,0,0,0-7.594-2.162,14.136,14.136,0,0,0-7.5,2.011Z" transform="translate(-6969.23 -9155.66)" clip-rule="evenodd"/>
                    </clipPath>
                </defs>
                <g id="Katman_x0020_1" transform="translate(-3151.54 -9155.66)">
                    <g id="_1857791478112" transform="translate(3175.381 9155.66)">
                        <path id="Path_2" data-name="Path 2" d="M5272.919,9229.049a22.08,22.08,0,0,1,14.936-25.869Z" transform="translate(-5272.39 -9202.646)" fill="#ff8a00" fill-rule="evenodd"/>
                        <path id="Path_3" data-name="Path 3" d="M6077.34,10715.1l5.793-10.035a9.581,9.581,0,0,1,2.872-1.9,13.345,13.345,0,0,1,3.206-.936,10.38,10.38,0,0,1,3.087-.036,7.157,7.157,0,0,1,2.581.845,5.426,5.426,0,0,1,2.9,4.061q.36,2.593-1.808,6.348l-.952,1.65Z" transform="translate(-6068.291 -10684.71)" fill="#ff8a00" fill-rule="evenodd"/>
                        <g id="Group_2" data-name="Group 2" transform="translate(9.049 17.384)" clip-path="url(#clip-path)">
                            <g id="Group_1" data-name="Group 1" transform="translate(2.303)">
                                <path id="_1" d="M6282.2,10715.1l5.793-10.035a9.573,9.573,0,0,1,2.872-1.9,13.345,13.345,0,0,1,3.206-.936,10.38,10.38,0,0,1,3.087-.036,7.157,7.157,0,0,1,2.581.845,5.426,5.426,0,0,1,2.9,4.061q.36,2.593-1.808,6.348l-.952,1.65Z" transform="translate(-6282.2 -10702.094)" fill="#ff8a00" fill-rule="evenodd"/>
                            </g>
                        </g>
                        <path id="Path_5" data-name="Path 5" d="M6077.34,10715.1l5.793-10.035a9.581,9.581,0,0,1,2.872-1.9,13.345,13.345,0,0,1,3.206-.936,10.38,10.38,0,0,1,3.087-.036,7.157,7.157,0,0,1,2.581.845,5.426,5.426,0,0,1,2.9,4.061q.36,2.593-1.808,6.348l-.952,1.65Z" transform="translate(-6068.291 -10684.71)" fill="none" fill-rule="evenodd"/>
                        <path id="Path_6" data-name="Path 6" d="M6976.747,9155.66a22.07,22.07,0,0,1,15.691,30.385h-4.758a28.169,28.169,0,0,0,1.663-3.813,13.388,13.388,0,0,0,.8-4.874,9.224,9.224,0,0,0-1.4-4.564,12.046,12.046,0,0,0-4.414-3.963,15.5,15.5,0,0,0-7.594-2.162,14.136,14.136,0,0,0-7.5,2.011Z" transform="translate(-6950.155 -9155.66)" fill="#ff8a00" fill-rule="evenodd"/>
                        <g id="Group_4" data-name="Group 4" transform="translate(19.075)" clip-path="url(#clip-path-2)">
                            <g id="Group_3" data-name="Group 3" transform="translate(2.303)">
                                <path id="_1_0" d="M7181.607,9155.66a22.069,22.069,0,0,1,15.691,30.385h-4.758a28.047,28.047,0,0,0,1.663-3.813,13.389,13.389,0,0,0,.8-4.874,9.225,9.225,0,0,0-1.4-4.564,12.042,12.042,0,0,0-4.414-3.963,15.492,15.492,0,0,0-7.594-2.162,14.135,14.135,0,0,0-7.5,2.011Z" transform="translate(-7174.091 -9155.66)" fill="#ff8a00" fill-rule="evenodd"/>
                            </g>
                        </g>
                        <path id="Path_8" data-name="Path 8" d="M6976.747,9155.66a22.07,22.07,0,0,1,15.691,30.385h-4.758a28.169,28.169,0,0,0,1.663-3.813,13.388,13.388,0,0,0,.8-4.874,9.224,9.224,0,0,0-1.4-4.564,12.046,12.046,0,0,0-4.414-3.963,15.5,15.5,0,0,0-7.594-2.162,14.136,14.136,0,0,0-7.5,2.011Z" transform="translate(-6950.155 -9155.66)" fill="none" fill-rule="evenodd"/>
                    </g>
                    <rect id="Rectangle_3" data-name="Rectangle 3" width="11.817" height="3.972" rx="1.986" transform="translate(3160.244 9182.073)" fill="#fab88c"/>
                    <rect id="Rectangle_4" data-name="Rectangle 4" width="18.204" height="3.972" rx="1.986" transform="translate(3151.54 9173.27)" fill="#fab88c"/>
                    <rect id="Rectangle_5" data-name="Rectangle 5" width="12.148" height="3.972" rx="1.986" transform="translate(3160.575 9164.464)" fill="#fab88c"/>
                    <rect id="Rectangle_6" data-name="Rectangle 6" width="6.853" height="3.972" rx="1.986" transform="translate(3170.574 9155.66)" fill="#fab88c"/>
                    <rect id="Rectangle_7" data-name="Rectangle 7" width="4.763" height="3.972" rx="1.986" transform="translate(3152.734 9164.464)" fill="#fab88c"/>
                </g>
            </svg>